<svg width="24" height="24" viewBox="0 0 24 24" fill="none" xmlns="http://www.w3.org/2000/svg">
<path d="M11.5414 4.03326H8.3159C5.66321 4.03326 4 5.91128 4 8.57001V15.7422C4 18.4009 5.65545 20.2789 8.3159 20.2789H15.928C18.5893 20.2789 20.2448 18.4009 20.2448 15.7422V12.2674" stroke="#fff" stroke-width="1.5" stroke-linecap="round" stroke-linejoin="round"/>
<path fill-rule="evenodd" clip-rule="evenodd" d="M9.24265 11.0484L15.6893 4.60171C16.4925 3.79943 17.7942 3.79943 18.5974 4.60171L19.6472 5.65157C20.4504 6.45471 20.4504 7.75733 19.6472 8.5596L13.1695 15.0373C12.8184 15.3884 12.3422 15.586 11.8453 15.586H8.61377L8.69486 12.3251C8.70694 11.8455 8.90276 11.3883 9.24265 11.0484Z" stroke="#fff" stroke-width="1.5" stroke-linecap="round" stroke-linejoin="round"/>
<path d="M14.7097 5.59769L18.6486 9.5366" stroke="#ffff" stroke-width="1.5" stroke-linecap="round" stroke-linejoin="round"/>
</svg>
