<svg width="160" height="54" viewBox="0 0 160 54" fill="none" xmlns="http://www.w3.org/2000/svg">
<g clip-path="url(#clip0_2090_675)">
<path d="M23.0848 0.563232C10.336 0.563232 0 11.168 0 24.2496C0 33.8496 6.208 40.8896 13.568 45.8112C21.3952 51.0336 23.0848 53.1968 23.0848 53.1968C23.0848 53.1968 24.768 51.0336 32.6016 45.8112C39.9616 40.9024 46.1632 33.8432 46.1632 24.2496C46.1632 11.168 35.84 0.563232 23.0848 0.563232Z" fill="white"/>
<path d="M51.8848 40.768V13.3184H58.3616L58.9632 16.9088C59.8536 15.6238 61.0386 14.5704 62.4192 13.8368C63.9384 13.0352 65.6362 12.6322 67.3536 12.6656C68.5973 12.6518 69.8359 12.8266 71.0272 13.184C72.0905 13.4969 73.0805 14.0191 73.9392 14.72C74.8024 15.4413 75.5082 16.3322 76.0128 17.3376C77.0752 15.906 78.4554 14.7405 80.0448 13.9328C81.806 13.0637 83.7483 12.625 85.712 12.6529C87.6758 12.6807 89.6049 13.1742 91.3408 14.0928C92.9646 15.0653 94.2427 16.5224 94.9952 18.2592C95.8674 20.3826 96.2838 22.6654 96.2176 24.96V40.768H88.9216V25.6832C88.9216 23.4688 88.4949 21.7792 87.6416 20.6144C87.178 20.0277 86.5785 19.5626 85.895 19.2593C85.2115 18.9561 84.4645 18.8237 83.7184 18.8736C82.6208 18.8532 81.5414 19.1559 80.6144 19.744C79.6774 20.3561 78.9391 21.2279 78.4896 22.2528C77.9503 23.4864 77.6902 24.8238 77.728 26.1696V40.768H70.4V25.6832C70.4 23.4688 69.9733 21.7792 69.12 20.6144C68.2666 19.4496 66.9226 18.8693 65.088 18.8736C64.0202 18.8517 62.971 19.1553 62.08 19.744C61.1698 20.3705 60.4536 21.2397 60.0128 22.2528C59.4711 23.4858 59.2088 24.8233 59.2448 26.1696V40.768H51.8848Z" fill="white"/>
<path d="M110.214 41.4208C108.286 41.4912 106.367 41.1145 104.608 40.32C103.223 39.6683 102.058 38.6276 101.254 37.3248C100.51 36.0637 100.125 34.6228 100.141 33.1584C100.1 31.5694 100.546 30.0058 101.421 28.6784C102.388 27.3177 103.744 26.2822 105.312 25.7088C107.441 24.9348 109.698 24.5742 111.962 24.6464H118.656C118.696 23.4981 118.522 22.3523 118.144 21.2672C117.837 20.4388 117.248 19.7453 116.48 19.3088C115.524 18.8387 114.465 18.6185 113.402 18.6688C112.172 18.6288 110.956 18.9301 109.888 19.5392C109.405 19.8416 108.995 20.2478 108.689 20.7282C108.382 21.2087 108.186 21.7513 108.115 22.3168H100.96C101.081 20.4581 101.749 18.6767 102.88 17.1968C104.048 15.7371 105.564 14.5948 107.29 13.8752C109.226 13.0557 111.312 12.6482 113.414 12.6784C115.722 12.6258 118.014 13.0621 120.141 13.9584C121.95 14.7255 123.474 16.0391 124.499 17.7152C125.544 19.5441 126.062 21.6262 125.997 23.7312V40.768H119.846L119.04 36.576C118.649 37.2916 118.163 37.9505 117.594 38.5344C117.012 39.1292 116.353 39.6436 115.635 40.064C114.876 40.5021 114.062 40.8399 113.216 41.0688C112.235 41.3175 111.226 41.4358 110.214 41.4208ZM112 35.7568C112.856 35.7678 113.703 35.5908 114.483 35.2384C115.217 34.8986 115.871 34.4079 116.403 33.7984C116.938 33.1798 117.37 32.4798 117.683 31.7248C118.015 30.9256 118.231 30.0829 118.323 29.2224V29.1648H112.71C111.759 29.1348 110.81 29.2734 109.907 29.5744C109.293 29.7683 108.76 30.1594 108.391 30.6871C108.022 31.2147 107.837 31.8495 107.866 32.4928C107.847 33.1171 108.016 33.7326 108.352 34.2592C108.709 34.7708 109.214 35.1615 109.798 35.3792C110.501 35.6458 111.249 35.774 112 35.7568Z" fill="white"/>
<path d="M130.643 52.7488V13.3184H137.177L137.997 17.0752C138.579 16.2715 139.266 15.5485 140.038 14.9248C140.904 14.2257 141.879 13.6743 142.925 13.2928C144.155 12.8473 145.456 12.6304 146.765 12.6528C149.178 12.6091 151.552 13.2648 153.6 14.5408C155.582 15.8153 157.19 17.5932 158.259 19.6928C159.439 21.9804 160.037 24.5238 160 27.0976C160.045 29.6642 159.447 32.2012 158.259 34.4768C157.174 36.5654 155.559 38.3313 153.574 39.5968C151.545 40.8487 149.199 41.4908 146.816 41.4464C145.019 41.4869 143.238 41.1009 141.619 40.32C140.179 39.6037 138.936 38.547 137.997 37.2416V52.7488H130.643ZM145.126 34.9952C146.455 35.0189 147.764 34.6804 148.915 34.016C150.025 33.3576 150.931 32.4052 151.533 31.264C152.186 29.9949 152.512 28.5824 152.48 27.1552C152.512 25.6912 152.187 24.2413 151.533 22.9312C151.06 22.0656 150.419 21.3036 149.647 20.6902C148.875 20.0769 147.987 19.6246 147.037 19.3603C146.087 19.0959 145.094 19.0248 144.116 19.1512C143.138 19.2776 142.195 19.5989 141.344 20.096C140.245 20.7746 139.358 21.748 138.784 22.9056C138.139 24.2071 137.821 25.6457 137.856 27.0976C137.823 28.5226 138.142 29.9337 138.784 31.2064C139.362 32.3544 140.248 33.3185 141.344 33.9904C142.487 34.671 143.796 35.019 145.126 34.9952Z" fill="white"/>
<path d="M14.9822 39.0975C17.8035 40.5242 20.9282 41.2467 24.0894 41.2031C26.9562 41.254 29.8024 40.7091 32.4478 39.6031C34.6696 38.7203 36.5818 37.2021 37.9454 35.2383V33.5871C37.0047 34.51 35.8852 35.2309 34.6558 35.7055C33.2019 36.2889 31.6461 36.5761 30.0798 36.5503C27.7116 36.6012 25.3838 35.9317 23.4046 34.6303C21.3771 33.2083 19.7983 31.2365 18.8542 28.9471C18.0722 27.1132 17.5737 25.171 17.3758 23.1871H38.3998C38.4446 22.8927 38.483 22.2399 38.5214 21.8239C38.5598 21.4079 38.5726 20.9855 38.5726 20.5439C38.6269 17.9743 38.0092 15.4351 36.7806 13.1775C35.592 11.0587 33.8132 9.33098 31.6606 8.20474C29.1703 6.94476 26.4056 6.32452 23.6158 6.39994C20.4102 6.32512 17.2411 7.09312 14.4254 8.62714C11.856 10.0643 9.74078 12.1928 8.31978 14.7711C6.81769 17.5542 6.05937 20.6779 6.11818 23.8399C6.02998 27.0884 6.85959 30.296 8.51178 33.0943C10.0676 35.6588 12.3085 37.7379 14.9822 39.0975ZM18.8926 11.5775C20.019 9.60634 21.5934 8.62287 23.6158 8.62714C25.3907 8.62714 26.7006 9.51461 27.5454 11.2895C28.3838 13.0623 28.8254 15.4623 28.8254 18.4703C28.8254 19.1231 28.8254 19.6735 28.8254 20.1215C28.8254 20.3647 28.8254 20.5759 28.7806 20.8063L17.2606 20.9343C17.2606 20.6079 17.2606 20.2943 17.2606 19.9551C17.2265 16.3242 17.7705 13.5231 18.8926 11.5519V11.5775Z" fill="black"/>
</g>
<defs>
<clipPath id="clip0_2090_675">
<rect width="160" height="53.76" fill="white"/>
</clipPath>
</defs>
</svg>
