<svg id="Layer_1" data-name="Layer 1" xmlns="http://www.w3.org/2000/svg" viewBox="0 0 160 160"><defs><style>.cls-1{fill:#fff;}</style></defs><path d="M80,0C41.24,0,9.83,32.24,9.83,72c0,29.17,18.86,50.62,41.24,65.55C74.87,153.42,80,160,80,160s5.13-6.58,28.93-22.45c22.38-14.93,41.24-36.38,41.24-65.55C150.17,32.24,118.76,0,80,0Z"/><path class="cls-1" d="M106,23.09q-10.15-5.43-24.4-5.43-16,0-27.93,6.77A47.86,47.86,0,0,0,35.08,43.18q-6.66,12-6.66,27.58,0,16.29,7.28,28.14a49.13,49.13,0,0,0,19.68,18.24,59.37,59.37,0,0,0,27.67,6.41,63.12,63.12,0,0,0,25.42-4.87q11.18-4.86,16.71-13.27l-.1-5a29.41,29.41,0,0,1-10,6.46,35.81,35.81,0,0,1-13.79,2.56A35.49,35.49,0,0,1,81,103.46q-8.82-5.94-13.83-17.27a59.44,59.44,0,0,1-4.5-17.6h63.85c.13-.89.25-2.87.36-4.14s.15-2.54.15-3.84a45,45,0,0,0-5.44-22.4A38.08,38.08,0,0,0,106,23.09ZM97.35,59.38q0,1.07-.09,2.07l-35.06.4c0-1-.06-2-.06-3q0-16.5,5.13-25.47t14.35-9q8.1,0,11.94,8.09T97.4,54.36C97.4,56.34,97.39,58,97.35,59.38Z"/></svg>