<svg width="16" height="16" viewBox="0 0 16 16" fill="none" xmlns="http://www.w3.org/2000/svg">
<g clip-path="url(#clip0_1845_1242)">
<path d="M0.794065 10.3431L1.28034 10.2267L0.794065 10.3431ZM0.794065 5.36081L1.28034 5.47717L0.794065 5.36081ZM15.2059 5.36082L14.7197 5.47718L15.2059 5.36082ZM15.2059 10.3431L14.7197 10.2267L15.2059 10.3431ZM10.5413 14.9157L10.6534 15.4029L10.6534 15.4029L10.5413 14.9157ZM5.4587 14.9157L5.57074 14.4284L5.4587 14.9157ZM5.45869 0.788259L5.57074 1.27554L5.45869 0.788259ZM10.5413 0.788259L10.6534 0.300975L10.5413 0.788259ZM1.28034 10.2267C0.906555 8.66471 0.906555 7.03921 1.28034 5.47717L0.307793 5.24445C-0.102598 6.95947 -0.102598 8.74445 0.307793 10.4595L1.28034 10.2267ZM14.7197 5.47718C15.0934 7.03921 15.0934 8.66471 14.7197 10.2267L15.6922 10.4595C16.1026 8.74444 16.1026 6.95947 15.6922 5.24446L14.7197 5.47718ZM10.4293 14.4284C8.83148 14.7958 7.16852 14.7958 5.57074 14.4284L5.34665 15.4029C7.0919 15.8042 8.9081 15.8042 10.6534 15.4029L10.4293 14.4284ZM5.57074 1.27554C7.16852 0.908152 8.83148 0.908152 10.4293 1.27554L10.6534 0.300975C8.9081 -0.100325 7.0919 -0.100325 5.34665 0.300975L5.57074 1.27554ZM5.57074 14.4284C3.43703 13.9378 1.77805 12.3067 1.28034 10.2267L0.307793 10.4595C0.895903 12.9172 2.85133 14.8292 5.34665 15.4029L5.57074 14.4284ZM10.6534 15.4029C13.1487 14.8292 15.1041 12.9172 15.6922 10.4595L14.7197 10.2267C14.2219 12.3067 12.563 13.9378 10.4293 14.4284L10.6534 15.4029ZM10.4293 1.27554C12.563 1.76617 14.2219 3.39722 14.7197 5.47718L15.6922 5.24446C15.1041 2.78675 13.1487 0.874745 10.6534 0.300975L10.4293 1.27554ZM5.34665 0.300975C2.85132 0.874745 0.895902 2.78674 0.307793 5.24445L1.28034 5.47717C1.77805 3.39721 3.43702 1.76617 5.57074 1.27554L5.34665 0.300975ZM10.2338 15.5C10.2338 14.2838 10.2349 13.423 10.3244 12.7706C10.4117 12.1337 10.5748 11.7704 10.8455 11.5051L10.1455 10.7909C9.6545 11.2722 9.43671 11.8832 9.33364 12.6347C9.23268 13.3708 9.23379 14.3126 9.23379 15.5H10.2338ZM14.9352 9.90131C13.723 9.90131 12.7646 9.90028 12.0162 9.99893C11.2543 10.0993 10.6351 10.311 10.1455 10.7909L10.8455 11.5051C11.1176 11.2383 11.4923 11.0766 12.1468 10.9904C12.8148 10.9023 13.6953 10.9013 14.9352 10.9013V9.90131Z" fill="white"/>
<path d="M5.5 5.5H8M5.5 8H9.66667" stroke="white" stroke-linecap="round"/>
</g>
<defs>
<clipPath id="clip0_1845_1242">
<rect width="16" height="16" fill="white"/>
</clipPath>
</defs>
</svg>
