<svg width="14" height="14" viewBox="0 0 14 14" fill="none" xmlns="http://www.w3.org/2000/svg">
<path fill-rule="evenodd" clip-rule="evenodd" d="M13.72 7.15909C13.72 6.66273 13.6755 6.18545 13.5927 5.72727H7V8.435H10.7673C10.605 9.31 10.1118 10.0514 9.37045 10.5477V12.3041H11.6327C12.9564 11.0855 13.72 9.29091 13.72 7.15909Z" fill="white"/>
<path fill-rule="evenodd" clip-rule="evenodd" d="M7.00008 14C8.89008 14 10.4746 13.3732 11.6328 12.3041L9.37054 10.5477C8.74372 10.9677 7.9419 11.2159 7.00008 11.2159C5.1769 11.2159 3.63372 9.98455 3.08327 8.33H0.744629V10.1436C1.89645 12.4314 4.26372 14 7.00008 14Z" fill="white"/>
<path fill-rule="evenodd" clip-rule="evenodd" d="M3.08318 8.33C2.94318 7.91 2.86364 7.46137 2.86364 7C2.86364 6.53864 2.94318 6.09 3.08318 5.67V3.85637H0.744545C0.270455 4.80137 0 5.87046 0 7C0 8.12955 0.270455 9.19864 0.744545 10.1436L3.08318 8.33Z" fill="white"/>
<path fill-rule="evenodd" clip-rule="evenodd" d="M7.00008 2.78409C8.02781 2.78409 8.95054 3.13727 9.67599 3.83091L11.6837 1.82318C10.4714 0.693636 8.8869 0 7.00008 0C4.26372 0 1.89645 1.56864 0.744629 3.85636L3.08327 5.67C3.63372 4.01545 5.1769 2.78409 7.00008 2.78409Z" fill="white"/>
</svg>
