<svg width="30" height="30" viewBox="0 0 30 30" fill="none" xmlns="http://www.w3.org/2000/svg">
<circle cx="15" cy="15" r="15" fill="white"/>
<path fill-rule="evenodd" clip-rule="evenodd" d="M22.68 15.1818C22.68 14.6145 22.6291 14.0691 22.5345 13.5455H15V16.64H19.3055C19.12 17.64 18.5564 18.4873 17.7091 19.0545V21.0618H20.2945C21.8073 19.6691 22.68 17.6182 22.68 15.1818Z" fill="#4285F4"/>
<path fill-rule="evenodd" clip-rule="evenodd" d="M15.0002 23C17.1602 23 18.9711 22.2836 20.2947 21.0618L17.7093 19.0545C16.9929 19.5345 16.0765 19.8182 15.0002 19.8182C12.9165 19.8182 11.1529 18.4109 10.5238 16.52H7.85107V18.5927C9.16744 21.2073 11.8729 23 15.0002 23Z" fill="#34A853"/>
<path fill-rule="evenodd" clip-rule="evenodd" d="M10.5236 16.52C10.3636 16.04 10.2727 15.5273 10.2727 15C10.2727 14.4727 10.3636 13.96 10.5236 13.48V11.4073H7.85091C7.30909 12.4873 7 13.7091 7 15C7 16.2909 7.30909 17.5127 7.85091 18.5927L10.5236 16.52Z" fill="#FBBC05"/>
<path fill-rule="evenodd" clip-rule="evenodd" d="M15.0002 10.1818C16.1747 10.1818 17.2293 10.5855 18.0583 11.3782L20.3529 9.08364C18.9674 7.79273 17.1565 7 15.0002 7C11.8729 7 9.16744 8.79273 7.85107 11.4073L10.5238 13.48C11.1529 11.5891 12.9165 10.1818 15.0002 10.1818Z" fill="#EA4335"/>
</svg>
