<svg width="24" height="24" viewBox="0 0 24 24" fill="none" xmlns="http://www.w3.org/2000/svg">
<circle cx="12" cy="12" r="12" fill="white"/>
<path fill-rule="evenodd" clip-rule="evenodd" d="M18.144 12.1455C18.144 11.6916 18.1033 11.2553 18.0276 10.8364H12V13.312H15.4444C15.296 14.112 14.8451 14.7898 14.1673 15.2436V16.8495H16.2356C17.4458 15.7353 18.144 14.0945 18.144 12.1455Z" fill="#4285F4"/>
<path fill-rule="evenodd" clip-rule="evenodd" d="M12 18.4C13.728 18.4 15.1768 17.8269 16.2357 16.8495L14.1673 15.2436C13.5942 15.6276 12.8611 15.8545 12 15.8545C10.3331 15.8545 8.92222 14.7287 8.41894 13.216H6.28076V14.8742C7.33385 16.9658 9.49822 18.4 12 18.4Z" fill="#34A853"/>
<path fill-rule="evenodd" clip-rule="evenodd" d="M8.41901 13.216C8.29101 12.832 8.21828 12.4218 8.21828 12C8.21828 11.5782 8.29101 11.168 8.41901 10.784V9.12582H6.28082C5.84737 9.98982 5.6001 10.9673 5.6001 12C5.6001 13.0327 5.84737 14.0102 6.28082 14.8742L8.41901 13.216Z" fill="#FBBC05"/>
<path fill-rule="evenodd" clip-rule="evenodd" d="M12 8.14546C12.9397 8.14546 13.7833 8.46837 14.4466 9.10255L16.2822 7.26692C15.1739 6.23419 13.7251 5.60001 12 5.60001C9.49822 5.60001 7.33385 7.03419 6.28076 9.12582L8.41894 10.784C8.92222 9.27128 10.3331 8.14546 12 8.14546Z" fill="#EA4335"/>
</svg>
