<svg width="182" height="44" viewBox="0 0 182 44" fill="none" xmlns="http://www.w3.org/2000/svg">
<path d="M19.2756 35V8.81818H29.6051C31.5824 8.81818 33.2699 9.17187 34.6676 9.87926C36.0739 10.5781 37.1435 11.571 37.8764 12.858C38.6179 14.1364 38.9886 15.6406 38.9886 17.3707C38.9886 19.1094 38.6136 20.6051 37.8636 21.858C37.1136 23.1023 36.027 24.0568 34.6037 24.7216C33.1889 25.3864 31.4759 25.7188 29.4645 25.7188H22.5483V21.2699H28.5696C29.6264 21.2699 30.5043 21.125 31.2031 20.8352C31.902 20.5455 32.4219 20.1108 32.7628 19.5312C33.1122 18.9517 33.2869 18.2315 33.2869 17.3707C33.2869 16.5014 33.1122 15.7685 32.7628 15.1719C32.4219 14.5753 31.8977 14.1236 31.1903 13.8168C30.4915 13.5014 29.6094 13.3438 28.544 13.3438H24.8111V35H19.2756ZM33.4148 23.0852L39.9219 35H33.8111L27.4446 23.0852H33.4148ZM48.4361 8.81818V35H42.9006V8.81818H48.4361ZM76.0913 17.9844H70.4918C70.3896 17.2599 70.1808 16.6165 69.8654 16.054C69.5501 15.483 69.1452 14.9972 68.6509 14.5966C68.1566 14.196 67.5856 13.8892 66.9379 13.6761C66.2987 13.4631 65.604 13.3565 64.854 13.3565C63.4989 13.3565 62.3185 13.6932 61.3129 14.3665C60.3072 15.0312 59.5273 16.0028 58.9734 17.2812C58.4194 18.5511 58.1424 20.0937 58.1424 21.9091C58.1424 23.7756 58.4194 25.3437 58.9734 26.6136C59.5359 27.8835 60.32 28.8423 61.3256 29.4901C62.3313 30.1378 63.4947 30.4616 64.8157 30.4616C65.5572 30.4616 66.2433 30.3636 66.8739 30.1676C67.5131 29.9716 68.0799 29.6861 68.5742 29.3111C69.0685 28.9276 69.4776 28.4631 69.8015 27.9176C70.1339 27.3722 70.364 26.75 70.4918 26.0511L76.0913 26.0767C75.9464 27.2784 75.5842 28.4375 75.0046 29.554C74.4336 30.6619 73.6623 31.6548 72.6907 32.5327C71.7276 33.402 70.5771 34.0923 69.239 34.6037C67.9094 35.1065 66.4052 35.358 64.7262 35.358C62.391 35.358 60.3029 34.8295 58.462 33.7727C56.6296 32.7159 55.1808 31.1861 54.1154 29.1832C53.0586 27.1804 52.5302 24.7557 52.5302 21.9091C52.5302 19.054 53.0671 16.625 54.141 14.6222C55.2148 12.6193 56.6722 11.0937 58.5131 10.0455C60.354 8.98864 62.4251 8.46023 64.7262 8.46023C66.2433 8.46023 67.6495 8.67329 68.945 9.09943C70.2489 9.52557 71.4038 10.1477 72.4094 10.9659C73.4151 11.7756 74.2333 12.7685 74.864 13.9446C75.5032 15.1207 75.9123 16.4673 76.0913 17.9844ZM80.0607 35V8.81818H85.5962V19.6207H96.8335V8.81818H102.356V35H96.8335V24.1847H85.5962V35H80.0607ZM111.433 35H105.501L114.539 8.81818H121.673L130.699 35H124.767L118.208 14.8011H118.004L111.433 35ZM111.062 24.7088H125.074V29.0298H111.062V24.7088ZM133.85 8.81818H140.676L147.887 26.4091H148.194L155.404 8.81818H162.23V35H156.861V17.9588H156.644L149.868 34.8722H146.212L139.436 17.8949H139.219V35H133.85V8.81818Z" fill="white"/>
<rect y="28" width="24" height="7" fill="white"/>
<rect x="158" y="28" width="24" height="7" fill="white"/>
</svg>
