<svg width="120" height="36" viewBox="0 0 120 36" fill="none" xmlns="http://www.w3.org/2000/svg">
<g clip-path="url(#clip0_2090_648)">
<path d="M15.0844 0C6.87873 0 0.228027 6.82394 0.228027 15.2451C0.228027 21.4183 4.22521 25.9606 8.9576 29.1211C13.9984 32.5014 15.0844 33.8746 15.0844 33.8746C15.0844 33.8746 16.1703 32.4803 21.2111 29.1211C25.9477 25.9606 29.9407 21.4183 29.9407 15.2451C29.9407 6.82394 23.29 0 15.0844 0Z" fill="white"/>
<path d="M20.5945 4.88871C18.9934 4.08451 17.2179 3.68964 15.4269 3.73941C13.3636 3.69026 11.3236 4.18422 9.51138 5.17181C7.85077 6.09979 6.48466 7.47614 5.56913 9.14364C4.60629 10.9354 4.12168 12.9452 4.16208 14.9788C4.10689 17.0701 4.64135 19.1348 5.70434 20.9366C6.70726 22.5871 8.14984 23.9258 9.87053 24.8028C11.6856 25.7222 13.6966 26.1877 15.7311 26.1591C17.5816 26.1918 19.4188 25.8408 21.1269 25.1281C22.5564 24.5575 23.7863 23.5788 24.6635 22.3141L24.6424 21.2535C24.0386 21.8477 23.3196 22.3122 22.5297 22.6183C21.6022 22.9918 20.6097 23.1771 19.61 23.1634C18.0822 23.1864 16.5835 22.7443 15.3128 21.8958C14.0082 20.9797 12.9923 19.7102 12.3846 18.2366C11.8702 17.0561 11.541 15.8034 11.4086 14.5225H24.9297C24.955 14.3324 24.9846 13.9141 25.0057 13.6479C25.0269 13.3817 25.0353 13.107 25.0353 12.8324C25.0719 11.1789 24.6757 9.54467 23.886 8.09153C23.1241 6.72617 21.9801 5.61301 20.5945 4.88871ZM11.2987 12.4648C11.2987 10.1324 11.6607 8.33378 12.3846 7.06899C13.1086 5.8042 14.1212 5.17181 15.4226 5.17181C16.5691 5.17181 17.4142 5.74364 17.9579 6.8873C18.5015 8.03096 18.7734 9.57181 18.7734 11.5098C18.7734 11.9324 18.7734 12.2831 18.7734 12.5704C18.7734 12.7267 18.7734 12.8662 18.748 12.9929L11.3156 13.0986C11.3114 12.8873 11.3029 12.676 11.3029 12.4648H11.2987Z" fill="black"/>
<path d="M42.9253 4.57606C45.883 4.57606 47.9239 6.80705 47.9239 10.069V10.6479H40.5084C40.6732 11.9155 41.683 12.9634 43.3774 12.9634C44.361 12.9667 45.3125 12.614 46.0563 11.9704L47.214 13.6606C46.1999 14.5901 44.6535 15.0465 43.1028 15.0465C40.0647 15.0465 37.7704 12.9972 37.7704 9.7986C37.7497 9.11288 37.8684 8.43009 38.1192 7.79157C38.3701 7.15306 38.748 6.57209 39.2299 6.08384C39.7118 5.5956 40.2878 5.21022 40.923 4.95106C41.5582 4.69189 42.2394 4.56431 42.9253 4.57606ZM40.4661 8.87324H45.3845C45.3716 8.56532 45.2973 8.26307 45.1661 7.9842C45.0349 7.70534 44.8493 7.45548 44.6203 7.24927C44.3913 7.04305 44.1234 6.88464 43.8323 6.78331C43.5412 6.68198 43.2329 6.63977 42.9253 6.65916C42.3093 6.6411 41.7101 6.8611 41.2521 7.27344C40.7941 7.68578 40.5126 8.25874 40.4661 8.87324Z" fill="white"/>
<path d="M49.2002 14.7888V4.88031H51.5495L51.7692 6.18172C52.0956 5.7142 52.5306 5.33287 53.0368 5.07045C53.5859 4.78117 54.1994 4.6358 54.8199 4.64792C55.2691 4.64144 55.7166 4.70415 56.1467 4.83383C56.5323 4.9498 56.8913 5.14077 57.203 5.3958C57.502 5.65863 57.7449 5.97912 57.9171 6.33806C58.303 5.82246 58.8016 5.40189 59.3748 5.10848C60.0116 4.79557 60.7134 4.63781 61.4228 4.64809C62.1322 4.65837 62.8291 4.8364 63.4565 5.16763C64.0451 5.51682 64.5081 6.04338 64.7791 6.67186C65.0862 7.4409 65.2301 8.26538 65.2016 9.09299V14.7888H62.565V9.35073C62.6132 8.70827 62.4548 8.06721 62.1129 7.52116C61.9455 7.30845 61.7286 7.1399 61.4812 7.03017C61.2337 6.92044 60.9632 6.87286 60.6932 6.89158C60.2976 6.88553 59.9087 6.99413 59.5734 7.20425C59.236 7.42598 58.9691 7.73977 58.8044 8.10848C58.6115 8.55637 58.5178 9.04069 58.5298 9.5282V14.7888H55.8932V9.35073C55.9351 8.70596 55.7693 8.06472 55.4199 7.52116C55.2471 7.30484 55.0238 7.1343 54.7696 7.02452C54.5154 6.91474 54.2381 6.86909 53.9622 6.89158C53.5785 6.88603 53.202 6.99489 52.8805 7.20425C52.5523 7.43068 52.2934 7.74369 52.1326 8.10848C51.9397 8.55637 51.846 9.04069 51.8579 9.5282V14.7888H49.2002Z" fill="white"/>
<path d="M70.4747 15.038C69.775 15.0572 69.0804 14.9125 68.4465 14.6155C67.946 14.3818 67.5256 14.0055 67.2381 13.5338C66.9612 13.081 66.815 12.5604 66.8156 12.0296C66.8036 11.4569 66.9657 10.8941 67.2803 10.4155C67.6304 9.92405 68.1209 9.54993 68.6874 9.34226C69.4559 9.0637 70.2703 8.93323 71.0874 8.95776H73.5212C73.5348 8.5424 73.4703 8.12819 73.331 7.73663C73.2195 7.43599 73.0036 7.18552 72.7226 7.031C72.3781 6.85968 71.9958 6.77828 71.6113 6.79438C71.1676 6.7803 70.7286 6.89003 70.3437 7.11128C70.1689 7.22223 70.0216 7.37163 69.9133 7.5481C69.8049 7.72457 69.7382 7.92345 69.7184 8.12959H67.1409C67.1886 7.45734 67.4325 6.81386 67.8423 6.27888C68.2592 5.74972 68.8027 5.33411 69.4226 5.07043C70.1235 4.77805 70.8774 4.63417 71.6367 4.6479C72.4699 4.62854 73.2979 4.78549 74.0663 5.10846C74.7173 5.38829 75.2652 5.8638 75.6339 6.46902C76.0107 7.12935 76.1979 7.88092 76.1747 8.64085V14.7887H73.9437L73.6522 13.2718C73.5093 13.5303 73.3331 13.769 73.1282 13.9817C72.9188 14.1974 72.6798 14.3824 72.4184 14.531C72.1455 14.6929 71.851 14.8153 71.5437 14.8944C71.1955 14.9904 70.8359 15.0387 70.4747 15.038ZM71.1254 12.9887C71.4262 12.9934 71.7244 12.9327 71.9994 12.8109C72.2744 12.689 72.5197 12.509 72.7184 12.2831C72.9152 12.0608 73.075 11.8083 73.1916 11.5352C73.3124 11.2449 73.392 10.9391 73.4282 10.6268H71.4085C71.0644 10.6156 70.721 10.6657 70.3944 10.7747C70.1656 10.8496 69.968 10.9981 69.8325 11.1972C69.7164 11.3882 69.6551 11.6075 69.6551 11.831C69.6551 12.0545 69.7164 12.2737 69.8325 12.4648C69.9584 12.6572 70.1417 12.805 70.3564 12.8873C70.6039 12.97 70.8649 13.0044 71.1254 12.9887Z" fill="white"/>
<path d="M79.4365 3.52392C79.0021 3.54299 78.5774 3.39133 78.2534 3.10138C78.106 2.96496 77.9894 2.79865 77.9115 2.61357C77.8335 2.42849 77.7959 2.22891 77.8013 2.02814C77.7962 1.82742 77.8339 1.62791 77.9118 1.44287C77.9898 1.25784 78.1062 1.0915 78.2534 0.954905C78.5788 0.667281 79.0025 0.515972 79.4365 0.53237C79.8719 0.514873 80.2973 0.666253 80.6238 0.954905C80.7751 1.08892 80.8951 1.25449 80.9754 1.43992C81.0557 1.62536 81.0943 1.82615 81.0886 2.02814C81.0946 2.23018 81.0561 2.43106 80.9758 2.61654C80.8954 2.80202 80.7753 2.96755 80.6238 3.10138C80.2973 3.39004 79.8719 3.54142 79.4365 3.52392ZM78.1097 14.7887V4.88026H80.7675V14.7887H78.1097Z" fill="white"/>
<path d="M82.8506 14.7887V0.629578H85.5083V14.7887H82.8506Z" fill="white"/>
<path d="M38.396 31.162V21.2451H40.758L40.9861 23.0535C41.2325 22.6442 41.5452 22.2786 41.9115 21.9718C42.2765 21.6605 42.6964 21.4197 43.1495 21.262C43.6472 21.0925 44.1703 21.0097 44.696 21.0169V23.831H43.7875C43.4203 23.828 43.0541 23.8706 42.6974 23.9578C42.3787 24.0379 42.0825 24.1897 41.8312 24.4014C41.5749 24.6323 41.3791 24.9225 41.2608 25.2465C41.1165 25.6735 41.0492 26.1227 41.0622 26.5733V31.162H38.396Z" fill="white"/>
<path d="M50.4001 31.3986C49.5015 31.4137 48.6154 31.186 47.8353 30.7395C47.0875 30.3021 46.4726 29.6697 46.0565 28.9099C45.6062 28.0869 45.3789 27.1605 45.3973 26.2226C45.3764 25.2723 45.6036 24.3329 46.0565 23.4972C46.4793 22.7353 47.1015 22.1028 47.8565 21.6676C48.6416 21.2224 49.5314 20.9949 50.4339 21.0085C51.3314 20.9925 52.2163 21.2203 52.9945 21.6676C53.7393 22.1051 54.3535 22.7339 54.7734 23.4888C55.2055 24.327 55.4309 25.2563 55.4309 26.1993C55.4309 27.1423 55.2055 28.0717 54.7734 28.9099C54.3537 29.6714 53.7343 30.3039 52.9818 30.7395C52.1967 31.1885 51.3045 31.4163 50.4001 31.3986ZM50.4001 29.0958C50.8059 29.1 51.2046 28.9886 51.5494 28.7747C51.9156 28.5333 52.208 28.1955 52.3945 27.7986C52.625 27.3001 52.7364 26.7547 52.7199 26.2057C52.7384 25.6533 52.63 25.1039 52.403 24.6C52.2195 24.2045 51.9261 23.8701 51.5579 23.6366C51.2165 23.4215 50.8206 23.3086 50.417 23.3113C50 23.3073 49.5902 23.42 49.2339 23.6366C48.8651 23.8693 48.5715 24.204 48.3889 24.6C48.1632 25.1043 48.0563 25.6536 48.0762 26.2057C48.0596 26.7525 48.1634 27.2964 48.3804 27.7986C48.5593 28.2004 48.8534 28.5401 49.2255 28.7747C49.5787 28.9909 49.9861 29.1023 50.4001 29.0958Z" fill="white"/>
<path d="M60.4562 31.3986C59.7579 31.4172 59.0648 31.2725 58.4322 30.976C57.9314 30.7411 57.51 30.3652 57.2196 29.8944C56.9499 29.4379 56.8111 28.916 56.8182 28.3859C56.8047 27.8137 56.9653 27.2508 57.2787 26.7718C57.6299 26.2815 58.12 25.9076 58.6858 25.6986C59.4546 25.4216 60.2689 25.2925 61.0858 25.3183H63.5069C63.5195 24.9034 63.4565 24.4896 63.321 24.0972C63.2068 23.797 62.9917 23.546 62.7125 23.3873C62.366 23.2176 61.9825 23.1377 61.597 23.1549C61.1537 23.1396 60.7148 23.2478 60.3294 23.4676C60.1502 23.58 59.9994 23.7323 59.8887 23.9126C59.778 24.0929 59.7105 24.2963 59.6914 24.507H57.1097C57.1574 23.8348 57.4013 23.1913 57.8111 22.6563C58.2323 22.1273 58.7802 21.7131 59.4041 21.4521C60.105 21.1597 60.8589 21.0158 61.6182 21.0296C62.4518 21.0108 63.2799 21.1692 64.0477 21.4944C64.696 21.7636 65.2461 22.2252 65.6238 22.8169C66.0006 23.4788 66.1877 24.2317 66.1646 24.993V31.162H63.9421L63.6463 29.6493C63.5047 29.9073 63.3284 30.1447 63.1224 30.3549C62.9137 30.571 62.6763 30.7572 62.4168 30.9084C62.1412 31.0679 61.8456 31.1901 61.5379 31.2718C61.1844 31.3611 60.8207 31.4037 60.4562 31.3986ZM61.1069 29.3535C61.4083 29.3596 61.7073 29.2992 61.9827 29.1765C62.258 29.0538 62.5029 28.8719 62.6999 28.6437C62.8984 28.4195 63.0583 28.1639 63.1731 27.8873C63.2959 27.5991 63.3756 27.2945 63.4097 26.9831V26.962H61.3815C61.0374 26.9512 60.6941 27.0012 60.3675 27.1099C60.1413 27.1878 59.9459 27.3358 59.8097 27.5324C59.6898 27.7217 59.6281 27.9421 59.6322 28.1662C59.6262 28.3918 59.6881 28.6141 59.8097 28.8042C59.9323 28.9979 60.1148 29.1463 60.3294 29.2268C60.578 29.3187 60.842 29.3617 61.1069 29.3535Z" fill="white"/>
<path d="M72.4438 31.3986C71.5856 31.4111 70.7416 31.1796 70.01 30.731C69.2877 30.2805 68.7031 29.6403 68.3198 28.8803C67.9194 28.047 67.7114 27.1344 67.7114 26.2099C67.7114 25.2854 67.9194 24.3727 68.3198 23.5395C68.71 22.7762 69.3038 22.1356 70.0353 21.6888C70.7743 21.2343 71.627 20.9984 72.4945 21.0085C73.1418 20.9928 73.7839 21.1273 74.3705 21.4014C74.8931 21.6556 75.3391 22.0433 75.6635 22.5254V16.9944H78.317V31.162H75.955L75.6635 29.7845C75.4486 30.0912 75.1927 30.367 74.9029 30.6042C74.5907 30.8554 74.2377 31.0512 73.8593 31.1831C73.4031 31.335 72.9244 31.4078 72.4438 31.3986ZM73.0733 29.0789C73.5643 29.0901 74.0486 28.9643 74.4719 28.7155C74.8662 28.4684 75.1849 28.1176 75.3931 27.7014C75.6263 27.2304 75.7423 26.71 75.7311 26.1845C75.7409 25.666 75.6249 25.1527 75.3931 24.6888C75.1854 24.2715 74.861 23.9236 74.4593 23.6873C74.031 23.4439 73.5447 23.3212 73.0522 23.3324C72.5778 23.325 72.1108 23.4509 71.7043 23.6958C71.3029 23.9381 70.9789 24.2899 70.7705 24.7099C70.5507 25.1756 70.4368 25.6843 70.4368 26.1993C70.4368 26.7143 70.5507 27.223 70.7705 27.6887C70.9838 28.1054 71.3066 28.456 71.7043 28.7028C72.1155 28.956 72.5905 29.0865 73.0733 29.0789Z" fill="white"/>
<path d="M80.3154 31.162V21.245H82.6563L82.8718 22.5422C83.1998 22.0762 83.6344 21.6952 84.1394 21.431C84.687 21.1417 85.2991 20.9963 85.9182 21.0084C86.3687 21.0041 86.8172 21.0667 87.2492 21.1943C87.6325 21.313 87.9896 21.5037 88.3013 21.7563C88.6112 22.0188 88.8655 22.3406 89.0492 22.7028C89.4337 22.1858 89.9326 21.765 90.507 21.4732C91.1013 21.1623 91.7631 21.0027 92.4337 21.0084C93.1859 20.9833 93.9307 21.1629 94.5887 21.5281C95.1743 21.8816 95.6352 22.4089 95.907 23.0366C96.2199 23.8042 96.3668 24.6293 96.338 25.4577V31.162H93.7013V25.7112C93.7442 25.0664 93.5783 24.4249 93.2281 23.8817C93.0621 23.6666 92.8458 23.4957 92.5983 23.3837C92.3507 23.2717 92.0795 23.2222 91.8084 23.2394C91.4108 23.2328 91.02 23.343 90.6844 23.5563C90.3458 23.7768 90.0787 24.0909 89.9154 24.4605C89.7224 24.9069 89.6287 25.3899 89.6408 25.876V31.162H87.0042V25.7112C87.047 25.0664 86.8811 24.4249 86.5309 23.8817C86.3599 23.6637 86.1378 23.4911 85.8844 23.3791C85.6309 23.2671 85.3538 23.2191 85.0774 23.2394C84.693 23.2322 84.3155 23.3428 83.9957 23.5563C83.661 23.7833 83.3985 24.1015 83.2394 24.4732C83.0429 24.9186 82.9476 25.4021 82.9605 25.8887V31.162H80.3154Z" fill="white"/>
<path d="M101.59 31.3986C100.891 31.4177 100.196 31.273 99.5621 30.9761C99.0613 30.7411 98.6399 30.3652 98.3495 29.8944C98.0816 29.4371 97.9429 28.9158 97.948 28.3859C97.9346 27.8137 98.0952 27.2508 98.4086 26.7718C98.7598 26.2815 99.2499 25.9076 99.8157 25.6986C100.585 25.422 101.399 25.2929 102.216 25.3183H104.637C104.652 24.9032 104.588 24.4891 104.451 24.0972C104.338 23.7963 104.122 23.5449 103.842 23.3873C103.497 23.2182 103.115 23.1383 102.731 23.1549C102.288 23.1409 101.849 23.2491 101.464 23.4676C101.284 23.5795 101.132 23.7316 101.02 23.912C100.909 24.0923 100.841 24.296 100.821 24.507H98.2438C98.288 23.8348 98.5307 23.1907 98.941 22.6563C99.3631 22.1282 99.9107 21.7142 100.534 21.4521C101.235 21.1604 101.989 21.0166 102.748 21.0296C103.582 21.0108 104.41 21.1692 105.178 21.4944C105.828 21.7607 106.379 22.223 106.754 22.8169C107.132 23.478 107.32 24.2315 107.295 24.993V31.162H105.072L104.776 29.6493C104.636 29.9072 104.461 30.1446 104.256 30.3549C104.046 30.571 103.807 30.7573 103.547 30.9084C103.273 31.0654 102.981 31.1861 102.676 31.2676C102.322 31.3584 101.956 31.4024 101.59 31.3986ZM102.254 29.3535C102.562 29.3569 102.868 29.2935 103.149 29.1676C103.416 29.0442 103.654 28.8656 103.847 28.6437C104.039 28.4183 104.193 28.1627 104.303 27.8873C104.426 27.5991 104.505 27.2945 104.54 26.9831V26.962H102.511C102.169 26.9508 101.827 27.0009 101.502 27.1099C101.343 27.1717 101.2 27.2676 101.083 27.3909C100.966 27.5142 100.878 27.6617 100.824 27.8231C100.77 27.9844 100.753 28.1556 100.773 28.3244C100.793 28.4933 100.85 28.6556 100.94 28.8C101.063 28.9929 101.245 29.141 101.459 29.2225C101.713 29.3181 101.983 29.3626 102.254 29.3535Z" fill="white"/>
<path d="M109.166 35.493V21.2451H111.549L111.841 22.6014C112.053 22.3119 112.302 22.0506 112.58 21.824C112.893 21.5716 113.246 21.3731 113.624 21.2366C114.068 21.0768 114.538 20.9994 115.01 21.0085C115.876 20.994 116.729 21.2303 117.465 21.6887C118.184 22.1465 118.767 22.7884 119.155 23.5479C119.579 24.3748 119.792 25.2935 119.776 26.2225C119.795 27.1492 119.581 28.0658 119.155 28.8887C118.762 29.6398 118.179 30.275 117.465 30.731C116.733 31.1823 115.886 31.414 115.027 31.3986C114.375 31.4092 113.731 31.2644 113.146 30.9761C112.627 30.7156 112.178 30.3346 111.836 29.8648V35.493H109.166ZM114.401 29.0789C114.882 29.0917 115.357 28.9718 115.774 28.7324C116.175 28.4947 116.503 28.1511 116.721 27.7394C116.957 27.2799 117.075 26.7686 117.063 26.2521C117.074 25.7234 116.957 25.2 116.721 24.7268C116.55 24.4141 116.319 24.1389 116.04 23.9174C115.761 23.6959 115.44 23.5327 115.097 23.4373C114.754 23.342 114.395 23.3165 114.042 23.3623C113.689 23.4082 113.348 23.5244 113.041 23.7042C112.638 23.9464 112.313 24.2981 112.103 24.7183C111.873 25.1889 111.758 25.7074 111.769 26.231C111.759 26.7464 111.873 27.2566 112.103 27.7183C112.313 28.1356 112.635 28.4865 113.032 28.7324C113.448 28.9714 113.922 29.0913 114.401 29.0789Z" fill="white"/>
</g>
<defs>
<clipPath id="clip0_2090_648">
<rect width="120" height="35.493" fill="white"/>
</clipPath>
</defs>
</svg>
